<svg width="251" height="288" viewBox="0 0 251 288" fill="none" xmlns="http://www.w3.org/2000/svg">
<path d="M98.2005 271.49L71.9035 256.2L77.701 252.72C80.8896 250.805 107.123 235.638 135.998 219.015C200.289 182.002 195.998 184.72 195.998 181.019C195.998 178.035 193.792 175.998 190.56 175.998C189.697 175.998 178.98 181.79 166.744 188.87C140.979 203.779 97.292 228.962 78.498 239.741C71.348 243.841 65.071 247.601 64.548 248.097C62.4603 250.076 58.7026 248.645 44.903 240.619C36.9804 236.012 23.973 228.46 15.998 223.838L1.49805 215.435V181.514V147.593L43.498 123.318C66.598 109.967 85.842 99.0328 86.262 99.0198C86.6825 99.0072 86.9075 112.829 86.762 129.735L86.4976 160.473L73.4306 167.985C55.1006 178.523 54.9976 178.6 54.9976 181.805C54.9976 183.804 55.8142 185.049 57.9538 186.313L60.91 188.059L110.704 159.374C138.091 143.597 161.06 129.997 161.748 129.152C162.608 128.096 162.998 123.484 162.998 114.389C162.998 107.114 163.254 100.495 163.567 99.6801C164.225 97.9662 162.56 97.0711 213.998 126.799L248.498 146.738L249.023 215.734L233.26 224.753C224.591 229.713 210.747 237.691 202.497 242.481C162.906 265.469 126.88 286.096 125.75 286.421C125.061 286.619 112.663 279.901 98.1995 271.492L98.2005 271.49Z" fill="#E4E4E4" stroke="#E4E4E4" stroke-width="2"/>
<path d="M99.0002 116.04C99.0002 91.8222 98.6513 79.0052 97.9923 79.0052C97.4379 79.0052 89.0004 83.6547 79.2423 89.3372C39.3533 112.566 2.05525 134.005 1.53025 134.005C1.22288 134.005 1.09039 120.172 1.23584 103.266L1.50029 72.5272L18.0003 62.9295C39.6893 50.3135 61.1463 37.9015 96.3213 17.6255C121.82 2.92653 125.393 1.14353 127.321 2.15153C128.52 2.77864 142.1 10.5736 157.5 19.4735C172.9 28.3736 199.788 43.9055 217.25 53.9885L249 72.3215V103.223C249 120.219 248.663 133.932 248.25 133.698C247.838 133.463 237.15 127.293 224.5 119.987C167.59 87.1165 154.968 80.0055 153.533 80.0055C152.204 80.0055 152 82.8529 152 101.48V122.954L148.75 124.626C146.963 125.546 136.05 131.791 124.5 138.504C112.95 145.217 102.488 151.242 101.25 151.893L99.0003 153.076V116.041L99.0002 116.04Z" fill="#E4E4E4" stroke="#E4E4E4" stroke-width="2"/>
</svg>
